<mxfile host="65bd71144e">
    <diagram id="OvnVlOCYNwARgH5Q8e0j" name="Page-1">
        <mxGraphModel dx="787" dy="849" grid="1" gridSize="10" guides="1" tooltips="1" connect="1" arrows="1" fold="1" page="1" pageScale="1" pageWidth="850" pageHeight="1400" math="0" shadow="0">
            <root>
                <mxCell id="0"/>
                <mxCell id="1" parent="0"/>
                <mxCell id="2" value="Orders" style="rounded=0;whiteSpace=wrap;html=1;" vertex="1" parent="1">
                    <mxGeometry x="180" y="110" width="120" height="60" as="geometry"/>
                </mxCell>
                <mxCell id="3" value="Customers" style="rounded=0;whiteSpace=wrap;html=1;" vertex="1" parent="1">
                    <mxGeometry x="580" y="30" width="120" height="60" as="geometry"/>
                </mxCell>
                <mxCell id="44ZAB8cnDUiJaejBmKfn-49" value="" style="edgeStyle=none;html=1;" edge="1" parent="1" source="5" target="2">
                    <mxGeometry relative="1" as="geometry"/>
                </mxCell>
                <mxCell id="5" value="&lt;u&gt;Order_id&lt;/u&gt;" style="ellipse;whiteSpace=wrap;html=1;align=center;" vertex="1" parent="1">
                    <mxGeometry x="20" y="120" width="100" height="40" as="geometry"/>
                </mxCell>
                <mxCell id="32" value="" style="edgeStyle=none;html=1;" edge="1" parent="1" source="8" target="3">
                    <mxGeometry relative="1" as="geometry"/>
                </mxCell>
                <mxCell id="8" value="&lt;u&gt;Customer_Id&lt;/u&gt;" style="ellipse;whiteSpace=wrap;html=1;align=center;" vertex="1" parent="1">
                    <mxGeometry x="740" y="40" width="100" height="40" as="geometry"/>
                </mxCell>
                <mxCell id="44ZAB8cnDUiJaejBmKfn-52" style="edgeStyle=none;html=1;exitX=1;exitY=0;exitDx=0;exitDy=0;entryX=0;entryY=1;entryDx=0;entryDy=0;" edge="1" parent="1" source="9" target="2">
                    <mxGeometry relative="1" as="geometry"/>
                </mxCell>
                <mxCell id="9" value="Customer_order" style="ellipse;whiteSpace=wrap;html=1;align=center;" vertex="1" parent="1">
                    <mxGeometry x="50" y="210" width="100" height="40" as="geometry"/>
                </mxCell>
                <mxCell id="44ZAB8cnDUiJaejBmKfn-50" value="" style="edgeStyle=none;html=1;" edge="1" parent="1" source="10" target="2">
                    <mxGeometry relative="1" as="geometry"/>
                </mxCell>
                <mxCell id="10" value="Order_date" style="ellipse;whiteSpace=wrap;html=1;align=center;" vertex="1" parent="1">
                    <mxGeometry x="290" y="270" width="100" height="40" as="geometry"/>
                </mxCell>
                <mxCell id="44ZAB8cnDUiJaejBmKfn-48" value="" style="edgeStyle=none;html=1;" edge="1" parent="1" source="12" target="2">
                    <mxGeometry relative="1" as="geometry"/>
                </mxCell>
                <mxCell id="12" value="Num_Of_Order" style="ellipse;whiteSpace=wrap;html=1;align=center;" vertex="1" parent="1">
                    <mxGeometry x="190" y="30" width="100" height="40" as="geometry"/>
                </mxCell>
                <mxCell id="34" value="" style="edgeStyle=none;html=1;" edge="1" parent="1" source="14" target="3">
                    <mxGeometry relative="1" as="geometry"/>
                </mxCell>
                <mxCell id="14" value="Customer_phone" style="ellipse;whiteSpace=wrap;html=1;align=center;" vertex="1" parent="1">
                    <mxGeometry x="530" y="110" width="100" height="40" as="geometry"/>
                </mxCell>
                <mxCell id="36" value="" style="edgeStyle=none;html=1;" edge="1" parent="1" source="15" target="3">
                    <mxGeometry relative="1" as="geometry"/>
                </mxCell>
                <mxCell id="15" value="Customer_name" style="ellipse;whiteSpace=wrap;html=1;align=center;" vertex="1" parent="1">
                    <mxGeometry x="660" y="110" width="100" height="40" as="geometry"/>
                </mxCell>
                <mxCell id="44ZAB8cnDUiJaejBmKfn-51" style="edgeStyle=none;html=1;exitX=1;exitY=1;exitDx=0;exitDy=0;entryX=0;entryY=0;entryDx=0;entryDy=0;" edge="1" parent="1" source="17" target="2">
                    <mxGeometry relative="1" as="geometry"/>
                </mxCell>
                <mxCell id="17" value="Order_price" style="ellipse;whiteSpace=wrap;html=1;align=center;" vertex="1" parent="1">
                    <mxGeometry x="50" y="50" width="100" height="40" as="geometry"/>
                </mxCell>
                <mxCell id="19" value="Menu" style="rounded=0;whiteSpace=wrap;html=1;" vertex="1" parent="1">
                    <mxGeometry x="130" y="330" width="120" height="60" as="geometry"/>
                </mxCell>
                <mxCell id="23" value="" style="edgeStyle=none;html=1;" edge="1" parent="1" source="20" target="19">
                    <mxGeometry relative="1" as="geometry"/>
                </mxCell>
                <mxCell id="20" value="&lt;u&gt;Meal_name&lt;/u&gt;" style="ellipse;whiteSpace=wrap;html=1;align=center;" vertex="1" parent="1">
                    <mxGeometry x="290" y="340" width="100" height="40" as="geometry"/>
                </mxCell>
                <mxCell id="24" value="" style="edgeStyle=none;html=1;" edge="1" parent="1" source="22" target="19">
                    <mxGeometry relative="1" as="geometry"/>
                </mxCell>
                <mxCell id="22" value="Meal_price" style="ellipse;whiteSpace=wrap;html=1;align=center;" vertex="1" parent="1">
                    <mxGeometry y="340" width="100" height="40" as="geometry"/>
                </mxCell>
                <mxCell id="25" value="Staff" style="rounded=0;whiteSpace=wrap;html=1;" vertex="1" parent="1">
                    <mxGeometry x="540" y="310" width="120" height="60" as="geometry"/>
                </mxCell>
                <mxCell id="38" value="" style="edgeStyle=none;html=1;" edge="1" parent="1" source="26" target="25">
                    <mxGeometry relative="1" as="geometry"/>
                </mxCell>
                <mxCell id="26" value="&lt;u&gt;Staff_id&lt;/u&gt;" style="ellipse;whiteSpace=wrap;html=1;align=center;" vertex="1" parent="1">
                    <mxGeometry x="700" y="320" width="100" height="40" as="geometry"/>
                </mxCell>
                <mxCell id="37" value="" style="edgeStyle=none;html=1;" edge="1" parent="1" source="27" target="25">
                    <mxGeometry relative="1" as="geometry"/>
                </mxCell>
                <mxCell id="27" value="Staff_Name" style="ellipse;whiteSpace=wrap;html=1;align=center;" vertex="1" parent="1">
                    <mxGeometry x="550" y="220" width="100" height="40" as="geometry"/>
                </mxCell>
                <mxCell id="40" value="" style="edgeStyle=none;html=1;" edge="1" parent="1" source="28" target="25">
                    <mxGeometry relative="1" as="geometry"/>
                </mxCell>
                <mxCell id="28" value="Staff_Phone" style="ellipse;whiteSpace=wrap;html=1;align=center;" vertex="1" parent="1">
                    <mxGeometry x="390" y="320" width="100" height="40" as="geometry"/>
                </mxCell>
                <mxCell id="39" value="" style="edgeStyle=none;html=1;" edge="1" parent="1" source="29" target="25">
                    <mxGeometry relative="1" as="geometry"/>
                </mxCell>
                <mxCell id="29" value="Staff_address" style="ellipse;whiteSpace=wrap;html=1;align=center;" vertex="1" parent="1">
                    <mxGeometry x="710" y="420" width="100" height="40" as="geometry"/>
                </mxCell>
                <mxCell id="31" value="" style="edgeStyle=none;html=1;" edge="1" parent="1" source="30" target="3">
                    <mxGeometry relative="1" as="geometry"/>
                </mxCell>
                <mxCell id="30" value="Customer_Address" style="ellipse;whiteSpace=wrap;html=1;align=center;" vertex="1" parent="1">
                    <mxGeometry x="440" y="20" width="100" height="40" as="geometry"/>
                </mxCell>
                <mxCell id="44ZAB8cnDUiJaejBmKfn-41" value="" style="edgeStyle=none;html=1;" edge="1" parent="1" source="44ZAB8cnDUiJaejBmKfn-40" target="19">
                    <mxGeometry relative="1" as="geometry"/>
                </mxCell>
                <mxCell id="44ZAB8cnDUiJaejBmKfn-40" value="Meal_Category" style="ellipse;whiteSpace=wrap;html=1;align=center;" vertex="1" parent="1">
                    <mxGeometry x="140" y="440" width="100" height="40" as="geometry"/>
                </mxCell>
                <mxCell id="44ZAB8cnDUiJaejBmKfn-43" value="Stock" style="rounded=0;whiteSpace=wrap;html=1;" vertex="1" parent="1">
                    <mxGeometry x="525" y="540" width="120" height="60" as="geometry"/>
                </mxCell>
                <mxCell id="44ZAB8cnDUiJaejBmKfn-47" value="" style="edgeStyle=none;html=1;" edge="1" parent="1" source="44ZAB8cnDUiJaejBmKfn-44" target="44ZAB8cnDUiJaejBmKfn-43">
                    <mxGeometry relative="1" as="geometry"/>
                </mxCell>
                <mxCell id="44ZAB8cnDUiJaejBmKfn-44" value="&lt;u&gt;Stock_Name&lt;/u&gt;" style="ellipse;whiteSpace=wrap;html=1;align=center;" vertex="1" parent="1">
                    <mxGeometry x="730" y="550" width="100" height="40" as="geometry"/>
                </mxCell>
                <mxCell id="44ZAB8cnDUiJaejBmKfn-46" value="" style="edgeStyle=none;html=1;" edge="1" parent="1" source="44ZAB8cnDUiJaejBmKfn-45" target="44ZAB8cnDUiJaejBmKfn-43">
                    <mxGeometry relative="1" as="geometry"/>
                </mxCell>
                <mxCell id="44ZAB8cnDUiJaejBmKfn-45" value="Number_of_stock" style="ellipse;whiteSpace=wrap;html=1;align=center;" vertex="1" parent="1">
                    <mxGeometry x="370" y="550" width="100" height="40" as="geometry"/>
                </mxCell>
                <mxCell id="44ZAB8cnDUiJaejBmKfn-55" style="edgeStyle=none;html=1;exitX=0;exitY=0.5;exitDx=0;exitDy=0;entryX=1;entryY=0.5;entryDx=0;entryDy=0;strokeWidth=2;endArrow=ERmandOne;endFill=0;" edge="1" parent="1" source="44ZAB8cnDUiJaejBmKfn-53" target="2">
                    <mxGeometry relative="1" as="geometry"/>
                </mxCell>
                <mxCell id="44ZAB8cnDUiJaejBmKfn-57" style="edgeStyle=none;html=1;exitX=1;exitY=0.5;exitDx=0;exitDy=0;entryX=0;entryY=0.75;entryDx=0;entryDy=0;strokeWidth=2;endArrow=ERmandOne;endFill=0;" edge="1" parent="1" source="44ZAB8cnDUiJaejBmKfn-53" target="3">
                    <mxGeometry relative="1" as="geometry"/>
                </mxCell>
                <mxCell id="44ZAB8cnDUiJaejBmKfn-53" value="Request" style="rhombus;whiteSpace=wrap;html=1;" vertex="1" parent="1">
                    <mxGeometry x="370" y="40" width="80" height="80" as="geometry"/>
                </mxCell>
                <mxCell id="44ZAB8cnDUiJaejBmKfn-59" value="" style="edgeStyle=none;html=1;strokeWidth=2;endArrow=ERmandOne;endFill=0;" edge="1" parent="1" source="44ZAB8cnDUiJaejBmKfn-58" target="2">
                    <mxGeometry relative="1" as="geometry"/>
                </mxCell>
                <mxCell id="44ZAB8cnDUiJaejBmKfn-60" value="" style="edgeStyle=none;html=1;strokeWidth=2;endArrow=ERoneToMany;endFill=0;" edge="1" parent="1" source="44ZAB8cnDUiJaejBmKfn-58" target="19">
                    <mxGeometry relative="1" as="geometry"/>
                </mxCell>
                <mxCell id="44ZAB8cnDUiJaejBmKfn-58" value="Contain" style="rhombus;whiteSpace=wrap;html=1;" vertex="1" parent="1">
                    <mxGeometry x="190" y="220" width="80" height="80" as="geometry"/>
                </mxCell>
                <mxCell id="44ZAB8cnDUiJaejBmKfn-63" value="" style="edgeStyle=none;html=1;strokeWidth=2;endArrow=ERoneToMany;endFill=0;" edge="1" parent="1" source="44ZAB8cnDUiJaejBmKfn-62" target="25">
                    <mxGeometry relative="1" as="geometry"/>
                </mxCell>
                <mxCell id="44ZAB8cnDUiJaejBmKfn-64" value="" style="edgeStyle=none;html=1;strokeWidth=2;endArrow=ERoneToMany;endFill=0;" edge="1" parent="1" source="44ZAB8cnDUiJaejBmKfn-62" target="44ZAB8cnDUiJaejBmKfn-43">
                    <mxGeometry relative="1" as="geometry"/>
                </mxCell>
                <mxCell id="44ZAB8cnDUiJaejBmKfn-62" value="Works_on" style="rhombus;whiteSpace=wrap;html=1;" vertex="1" parent="1">
                    <mxGeometry x="550" y="410" width="80" height="80" as="geometry"/>
                </mxCell>
                <mxCell id="44ZAB8cnDUiJaejBmKfn-66" style="edgeStyle=none;html=1;exitX=1;exitY=1;exitDx=0;exitDy=0;entryX=0;entryY=0;entryDx=0;entryDy=0;strokeWidth=2;endArrow=ERoneToMany;endFill=0;" edge="1" parent="1" source="44ZAB8cnDUiJaejBmKfn-65" target="25">
                    <mxGeometry relative="1" as="geometry"/>
                </mxCell>
                <mxCell id="44ZAB8cnDUiJaejBmKfn-67" style="edgeStyle=none;html=1;exitX=0;exitY=0.5;exitDx=0;exitDy=0;entryX=1;entryY=1;entryDx=0;entryDy=0;strokeWidth=2;endArrow=ERoneToMany;endFill=0;" edge="1" parent="1" source="44ZAB8cnDUiJaejBmKfn-65" target="2">
                    <mxGeometry relative="1" as="geometry"/>
                </mxCell>
                <mxCell id="44ZAB8cnDUiJaejBmKfn-65" value="Works_on" style="rhombus;whiteSpace=wrap;html=1;" vertex="1" parent="1">
                    <mxGeometry x="380" y="180" width="80" height="80" as="geometry"/>
                </mxCell>
            </root>
        </mxGraphModel>
    </diagram>
    <diagram id="lfG4nO6cklcGyaOgQxrA" name="Page-2">
        <mxGraphModel dx="486" dy="467" grid="1" gridSize="10" guides="1" tooltips="1" connect="1" arrows="1" fold="1" page="1" pageScale="1" pageWidth="850" pageHeight="1400" math="0" shadow="0">
            <root>
                <mxCell id="0"/>
                <mxCell id="1" parent="0"/>
            </root>
        </mxGraphModel>
    </diagram>
</mxfile>